<?xml version="1.0" standalone="no"?><svg xmlns="http://www.w3.org/2000/svg" viewBox="0 0 1440 320"><path fill="#f3f4f5" fill-opacity="0.8" d="M0,256L24,245.3C48,235,96,213,144,213.3C192,213,240,235,288,240C336,245,384,235,432,218.7C480,203,528,181,576,181.3C624,181,672,203,720,229.3C768,256,816,288,864,298.7C912,309,960,299,1008,282.7C1056,267,1104,245,1152,240C1200,235,1248,245,1296,250.7C1344,256,1392,256,1416,256L1440,256L1440,0L1416,0C1392,0,1344,0,1296,0C1248,0,1200,0,1152,0C1104,0,1056,0,1008,0C960,0,912,0,864,0C816,0,768,0,720,0C672,0,624,0,576,0C528,0,480,0,432,0C384,0,336,0,288,0C240,0,192,0,144,0C96,0,48,0,24,0L0,0Z"></path></svg>